<svg xmlns="http://www.w3.org/2000/svg" aria-hidden="true" style="position:absolute;width:0;height:0;overflow:hidden"><defs><symbol id="clockwise" viewBox="0 0 32 32"><path d="M16 6a10.006 10.006 0 0 0-9.594 7.19 10.005 10.005 0 0 0 4.201 11.229 10.005 10.005 0 0 0 11.957-.871 10.003 10.003 0 0 0 2.528-11.719c-.098-.239-.1-.506-.006-.747s.279-.435.513-.542a.999.999 0 0 1 1.309.455 12 12 0 1 1-10.907-6.994v2z"/><path d="M16 8.932V1.068a.498.498 0 0 1 .82-.383l4.72 3.932a.5.5 0 0 1 0 .768l-4.72 3.932a.498.498 0 0 1-.82-.383z"/></symbol><symbol id="bell" viewBox="0 0 32 32"><path d="M16 32a4.003 4.003 0 0 0 4-4h-8a4.003 4.003 0 0 0 4 4zm0-28.164-1.594.322A8.005 8.005 0 0 0 8 12c0 1.256-.268 4.394-.918 7.484-.32 1.534-.752 3.132-1.326 4.516h20.488c-.574-1.384-1.004-2.98-1.326-4.516C24.268 16.394 24 13.256 24 12a7.998 7.998 0 0 0-6.406-7.84L16 3.836zM28.44 24c.446.894.962 1.602 1.56 2H2c.598-.398 1.114-1.106 1.56-2C5.36 20.4 6 13.76 6 12c0-4.84 3.44-8.88 8.01-9.802a2 2 0 1 1 3.98 0A10.002 10.002 0 0 1 26 12c0 1.76.64 8.4 2.44 12z"/></symbol><symbol id="briefcase" viewBox="0 0 32 32"><path d="M13 2a3.004 3.004 0 0 0-3 3v1H3a3.004 3.004 0 0 0-3 3v16a3.004 3.004 0 0 0 3 3h26a3.004 3.004 0 0 0 3-3V9a3.004 3.004 0 0 0-3-3h-7V5a3.004 3.004 0 0 0-3-3h-6zm0 2h6a.997.997 0 0 1 1 1v1h-8V5a.997.997 0 0 1 1-1zm3.772 13.828L30 14.302V25a.997.997 0 0 1-1 1H3a.997.997 0 0 1-1-1V14.3l13.228 3.528a2.994 2.994 0 0 0 1.544 0zM3 8h26a.997.997 0 0 1 1 1v3.232l-13.742 3.664a1.003 1.003 0 0 1-.516 0L2 12.232V9a.997.997 0 0 1 1-1z"/></symbol><symbol id="calendar" viewBox="0 0 32 32"><path d="M7 0a.997.997 0 0 1 1 1v1h16V1a.997.997 0 0 1 1-1 .997.997 0 0 1 1 1v1h2a4.003 4.003 0 0 1 4 4v22a4.003 4.003 0 0 1-4 4H4a4.003 4.003 0 0 1-4-4V6a4.003 4.003 0 0 1 4-4h2V1a.997.997 0 0 1 1-1zM4 4a2 2 0 0 0-2 2v2h28V6a2 2 0 0 0-2-2H4zm26 6H2v18a2 2 0 0 0 2 2h24a2 2 0 0 0 2-2V10z"/><path d="M18 15a.997.997 0 0 1 1-1h11v4H19a.997.997 0 0 1-1-1v-2zm-4 6v2a.997.997 0 0 1-1 1H2v-4h11a.997.997 0 0 1 1 1z"/></symbol><symbol id="clipboard-check" viewBox="0 0 32 32"><path d="M21.708 14.292a.991.991 0 0 1 .293.708 1.002 1.002 0 0 1-.293.708l-6 6a.991.991 0 0 1-.708.293 1.002 1.002 0 0 1-.708-.293l-3-3a.991.991 0 0 1-.293-.708 1.006 1.006 0 0 1 .293-.708 1 1 0 0 1 1.416 0L15 19.586l5.292-5.294a.991.991 0 0 1 .708-.293 1.006 1.006 0 0 1 .708.293z"/><path d="M8 3H6a4.003 4.003 0 0 0-4 4v21a4.003 4.003 0 0 0 4 4h20a4.003 4.003 0 0 0 4-4V7a4.003 4.003 0 0 0-4-4h-2v2h2a2 2 0 0 1 2 2v21a2 2 0 0 1-2 2H6a2 2 0 0 1-2-2V7a2 2 0 0 1 2-2h2V3z"/><path d="M19 2a.997.997 0 0 1 1 1v2a.997.997 0 0 1-1 1h-6a.997.997 0 0 1-1-1V3a.997.997 0 0 1 1-1h6zm-6-2a3.004 3.004 0 0 0-3 3v2a3.004 3.004 0 0 0 3 3h6a3.004 3.004 0 0 0 3-3V3a3.004 3.004 0 0 0-3-3h-6z"/></symbol><symbol id="coin" viewBox="0 0 32 32"><path d="M11 19.022c.152 1.908 1.66 3.394 4.364 3.57V24h1.2v-1.418c2.8-.196 4.436-1.692 4.436-3.864 0-1.974-1.252-2.992-3.49-3.52l-.946-.224V11.14c1.2.136 1.964.792 2.148 1.7h2.104c-.152-1.838-1.728-3.276-4.252-3.432V8h-1.2v1.438c-2.39.234-4.02 1.672-4.02 3.706 0 1.8 1.212 2.944 3.226 3.414l.794.196v4.068c-1.23-.186-2.044-.86-2.228-1.8H11zm4.354-4.332c-1.18-.274-1.82-.832-1.82-1.672 0-.94.69-1.644 1.83-1.85v3.52l-.01.002zm1.384 2.386c1.434.332 2.096.87 2.096 1.82 0 1.084-.824 1.828-2.27 1.964v-3.824l.174.04z"/><path d="M16 30a14 14 0 1 1 0-28 14 14 0 0 1 0 28zm0 2a16.003 16.003 0 0 0 16-16A15.997 15.997 0 0 0 16 0 15.997 15.997 0 0 0 0 16a16.003 16.003 0 0 0 16 16z"/><path d="M16 27a11 11 0 1 1 0-22 11 11 0 0 1 0 22zm0 1a12 12 0 1 0 .002-24.003A12 12 0 0 0 16 28.002z"/></symbol><symbol id="columns-gap" viewBox="0 0 32 32"><path d="M12 2v6H2V2h10zM2 0a2 2 0 0 0-2 2v6a2 2 0 0 0 2 2h10a2 2 0 0 0 2-2V2a2 2 0 0 0-2-2H2zm28 24v6H20v-6h10zm-10-2a2 2 0 0 0-2 2v6a2 2 0 0 0 2 2h10a2 2 0 0 0 2-2v-6a2 2 0 0 0-2-2H20zm-8-6v14H2V16h10zM2 14a2 2 0 0 0-2 2v14a2 2 0 0 0 2 2h10a2 2 0 0 0 2-2V16a2 2 0 0 0-2-2H2zM30 2v14H20V2h10zM20 0a2 2 0 0 0-2 2v14a2 2 0 0 0 2 2h10a2 2 0 0 0 2-2V2a2 2 0 0 0-2-2H20z"/></symbol><symbol id="envelope" viewBox="0 0 32 32"><path d="M0 8a4.003 4.003 0 0 1 4-4h24a4.003 4.003 0 0 1 4 4v16a4.003 4.003 0 0 1-4 4H4a4.003 4.003 0 0 1-4-4V8zm4-2a2 2 0 0 0-2 2v.434l14 8.4 14-8.4V8a2 2 0 0 0-2-2H4zm26 4.766-9.416 5.65L30 22.21V10.766zm-.068 13.752-11.28-6.942L16 19.166l-2.652-1.59-11.28 6.94A2 2 0 0 0 4 26h24a2.003 2.003 0 0 0 1.932-1.482zM2 22.21l9.416-5.794L2 10.766V22.21z"/></symbol><symbol id="gear" viewBox="0 0 32 32"><path d="M16 9.508a6.49 6.49 0 1 0 6.492 6.49A6.49 6.49 0 0 0 16 9.506zM11.508 16A4.489 4.489 0 0 1 16 11.508 4.489 4.489 0 0 1 20.492 16 4.489 4.489 0 0 1 16 20.492 4.489 4.489 0 0 1 11.508 16z"/><path d="M19.592 2.686c-1.054-3.58-6.13-3.58-7.184 0l-.188.638a1.754 1.754 0 0 1-1.006 1.12 1.756 1.756 0 0 1-1.504-.079l-.584-.32c-3.28-1.784-6.866 1.804-5.08 5.082l.318.584a1.746 1.746 0 0 1-1.041 2.51l-.638.188c-3.58 1.054-3.58 6.13 0 7.184l.638.188a1.754 1.754 0 0 1 1.12 1.006 1.756 1.756 0 0 1-.079 1.504l-.32.584c-1.784 3.28 1.802 6.868 5.082 5.08l.584-.318a1.746 1.746 0 0 1 2.51 1.04l.188.638c1.054 3.58 6.13 3.58 7.184 0l.188-.638a1.754 1.754 0 0 1 1.006-1.12 1.74 1.74 0 0 1 1.504.08l.584.32c3.28 1.786 6.868-1.804 5.08-5.082l-.318-.584a1.746 1.746 0 0 1 1.04-2.51l.638-.188c3.58-1.054 3.58-6.13 0-7.184l-.638-.188a1.754 1.754 0 0 1-1.12-1.006 1.74 1.74 0 0 1 .08-1.504l.32-.584c1.786-3.28-1.804-6.866-5.082-5.08l-.584.318a1.746 1.746 0 0 1-2.51-1.041l-.188-.638zm-5.266.566c.492-1.67 2.856-1.67 3.348 0l.188.638a3.748 3.748 0 0 0 5.385 2.23l.582-.32c1.528-.83 3.2.84 2.368 2.37l-.318.584a3.756 3.756 0 0 0-.171 3.225 3.738 3.738 0 0 0 2.402 2.159l.636.188c1.67.492 1.67 2.856 0 3.348l-.638.188a3.748 3.748 0 0 0-2.23 5.385l.32.582c.83 1.528-.84 3.2-2.37 2.368l-.582-.318a3.76 3.76 0 0 0-3.227-.171 3.75 3.75 0 0 0-2.159 2.403l-.188.636c-.492 1.67-2.856 1.67-3.348 0l-.188-.638a3.737 3.737 0 0 0-2.16-2.401 3.755 3.755 0 0 0-3.225.171l-.584.32c-1.528.83-3.2-.84-2.368-2.37l.318-.582c.268-.491.423-1.036.452-1.594s-.066-1.116-.279-1.633a3.745 3.745 0 0 0-2.404-2.161l-.638-.188c-1.67-.492-1.67-2.856 0-3.348l.638-.188a3.742 3.742 0 0 0 2.229-5.382l-.32-.584c-.83-1.528.84-3.2 2.37-2.368l.584.318a3.756 3.756 0 0 0 3.225.171 3.748 3.748 0 0 0 2.16-2.401l.188-.638z"/></symbol><symbol id="journal-text" viewBox="0 0 32 32"><path d="M10 21a.997.997 0 0 1 1-1h4a.997.997 0 0 1 1 1 .997.997 0 0 1-1 1h-4a.997.997 0 0 1-1-1zm0-4a.997.997 0 0 1 1-1h10a.997.997 0 0 1 1 1 .997.997 0 0 1-1 1H11a.997.997 0 0 1-1-1zm0-4a.997.997 0 0 1 1-1h10a.997.997 0 0 1 1 1 .997.997 0 0 1-1 1H11a.997.997 0 0 1-1-1zm0-4a.997.997 0 0 1 1-1h10a.997.997 0 0 1 1 1 .997.997 0 0 1-1 1H11a.997.997 0 0 1-1-1z"/><path d="M6 0h20a4.003 4.003 0 0 1 4 4v24a4.003 4.003 0 0 1-4 4H6a4.003 4.003 0 0 1-4-4v-2h2v2a2 2 0 0 0 2 2h20a2 2 0 0 0 2-2V4a2 2 0 0 0-2-2H6a2 2 0 0 0-2 2v2H2V4a4.003 4.003 0 0 1 4-4z"/><path d="M2 10V9a.997.997 0 0 1 1-1 .997.997 0 0 1 1 1v1h1a.997.997 0 0 1 1 1 .997.997 0 0 1-1 1H1a.997.997 0 0 1-1-1 .997.997 0 0 1 1-1h1zm0 6v-1a.997.997 0 0 1 1-1 .997.997 0 0 1 1 1v1h1a.997.997 0 0 1 1 1 .997.997 0 0 1-1 1H1a.997.997 0 0 1-1-1 .997.997 0 0 1 1-1h1zm0 6v-1a.997.997 0 0 1 1-1 .997.997 0 0 1 1 1v1h1a.997.997 0 0 1 1 1 .997.997 0 0 1-1 1H1a.997.997 0 0 1-1-1 .997.997 0 0 1 1-1h1z"/></symbol><symbol id="justify" viewBox="0 0 32 32"><path d="M4 25a.997.997 0 0 1 1-1h22a.997.997 0 0 1 1 1 .997.997 0 0 1-1 1H5a.997.997 0 0 1-1-1zm0-6a.997.997 0 0 1 1-1h22a.997.997 0 0 1 1 1 .997.997 0 0 1-1 1H5a.997.997 0 0 1-1-1zm0-6a.997.997 0 0 1 1-1h22a.997.997 0 0 1 1 1 .997.997 0 0 1-1 1H5a.997.997 0 0 1-1-1zm0-6a.997.997 0 0 1 1-1h22a.997.997 0 0 1 1 1 .997.997 0 0 1-1 1H5a.997.997 0 0 1-1-1z"/></symbol><symbol id="person-plus" viewBox="0 0 32 32"><path d="M12 16a5.996 5.996 0 0 0 6-6A6.002 6.002 0 0 0 7.757 5.757 6 6 0 0 0 12 16zm4-6a4.003 4.003 0 0 1-4 4 4.003 4.003 0 0 1-4-4 4.003 4.003 0 0 1 4-4 4.003 4.003 0 0 1 4 4zm8 16c0 2-2 2-2 2H2s-2 0-2-2 2-8 12-8 12 6 12 8zm-2-.008c-.002-.492-.308-1.972-1.664-3.328C19.032 21.36 16.578 20 12 20c-4.58 0-7.032 1.36-8.336 2.664C2.308 24.02 2.004 25.5 2 25.992h20zM27 10a.997.997 0 0 1 1 1v3h3a.997.997 0 0 1 1 1 .997.997 0 0 1-1 1h-3v3a.997.997 0 0 1-1 1 .997.997 0 0 1-1-1v-3h-3a.997.997 0 0 1-1-1 .997.997 0 0 1 1-1h3v-3a.997.997 0 0 1 1-1z"/></symbol><symbol id="search" viewBox="0 0 32 32"><path d="M23.484 20.688a13 13 0 1 0-2.794 2.796h-.002c.06.08.124.156.196.23l7.7 7.7a2 2 0 0 0 2.83-2.828l-7.7-7.7a2.069 2.069 0 0 0-.23-.198zM24 13A10.998 10.998 0 0 1 8.79 23.163a11.012 11.012 0 0 1-5.954-5.953A10.998 10.998 0 0 1 5.221 5.222 11 11 0 0 1 23.999 13z"/></symbol><symbol id="close" viewBox="0 0 32 32"><path d="M4.292 5.708A.991.991 0 0 1 3.999 5a1.006 1.006 0 0 1 .618-.925 1.01 1.01 0 0 1 .766 0c.121.05.232.124.325.217L16 14.586 26.292 4.292A.991.991 0 0 1 27 3.999a1.006 1.006 0 0 1 .925.618 1.006 1.006 0 0 1-.217 1.091L17.414 16l10.294 10.292a.991.991 0 0 1 .293.708 1.006 1.006 0 0 1-.618.925 1.006 1.006 0 0 1-1.091-.217L16 17.414 5.708 27.708a.991.991 0 0 1-.708.293 1.006 1.006 0 0 1-.925-.618 1.006 1.006 0 0 1 .217-1.091L14.586 16 4.292 5.708z"/></symbol><symbol id="circle" viewBox="0 0 32 32"><path fill="#fc5a5a" stroke="#fff" d="M30 16c0 7.732-6.268 14-14 14S2 23.732 2 16 8.268 2 16 2s14 6.268 14 14z" style="fill:var(--color1, #fc5a5a);stroke:var(--color2, #fff)"/><path fill="none" stroke="#92929d" d="M31.5 16c0 8.56-6.94 15.5-15.5 15.5S.5 24.56.5 16C.5 7.44 7.44.5 16 .5S31.5 7.44 31.5 16z" style="stroke:var(--color3, #92929d)"/></symbol><symbol id="logo" viewBox="0 0 32 32"><path fill="#1c1c24" d="M2.555 10.693S2.081 1.881 3.996 1.44s5.218 2.721 5.218 2.721l-6.659 6.532zm18.087-6.317s3.535-3.52 6.041-2.934c2.504.586.59 7.545.59 7.545l-6.631-4.611z" style="fill:var(--color4, #1c1c24)"/><path fill="#f07f2e" stroke="#1c1c24" stroke-miterlimit="10" stroke-width="0.5333" d="M27.558 26.809c-2.653 2.097-4.428 2.782-7.444 3.598-2.013.545-7.083.517-11.808-1.384-3.31-1.448-4.607-3.022-5.232-3.88-.544-.746-1.65-2.402-1.713-4.214-.092-2.637-.015-5.21 1.196-10.232 1.211-5.024 6.659-6.532 6.659-6.532 5.953-1.406 10.897-.301 12.612 0s6.589 3.387 7.008 9.571c.064.925 1.1 4.214 1.2 6.977.03.847.055 1.975-.367 3.133-.487 1.335-1.573 2.513-2.11 2.963z" style="fill:var(--color5, #f07f2e);stroke:var(--color4, #1c1c24)"/><path fill="#1c1c24" d="M11.148 14.33c.042-.079.09-.155.142-.23l.075-.107.044-.057a3.146 3.146 0 0 1 .351-.363c.016-.014.095-.077.033-.029s.028-.019.048-.033a1.56 1.56 0 0 1 .157-.095c.026-.014.055-.026.083-.04.055-.028-.098.031.009-.002a2.22 2.22 0 0 1 .178-.047c.079-.02-.101.003-.019.003.036 0 .072-.005.109-.003.033 0 .065.006.097.006.059 0-.095-.026-.039-.005.012.005.03.005.044.009.034.009.069.017.101.028l.044.015c.092.026-.053-.034-.008-.003.076.051.165.09.243.141l.047.034c-.075-.057 0 .001.014.015.042.039.086.076.126.116.209.208.336.389.495.645a.479.479 0 0 0 .639.168c.213-.124.301-.422.168-.636-.5-.802-1.259-1.613-2.297-1.432-.623.109-1.111.599-1.468 1.088-.081.11-.159.225-.223.344a.474.474 0 0 0 .168.636c.21.119.52.053.639-.169zm13.653-.665a2.59 2.59 0 0 1 .207-.322l.041-.056c.034-.047-.078.095-.008.012a3.25 3.25 0 0 1 .217-.239c.04-.04.083-.079.126-.115.016-.014.093-.076.03-.026s.023-.017.044-.03c.048-.033.098-.064.15-.092l.078-.039c.055-.028-.103.033.005 0 .056-.017.114-.031.171-.045.078-.019-.104.005-.023.003.034 0 .069-.005.104-.003.031 0 .062.006.094.006.059 0-.098-.026-.044-.005.013.005.028.005.041.008l.097.026c.014.005.028.011.042.014.09.026-.056-.036-.012-.006.073.05.157.085.232.137l.044.033c-.079-.06-.006-.003.009.011.041.037.083.073.121.112.204.203.313.362.472.614a.479.479 0 0 0 .639.168c.213-.124.301-.422.168-.636-.485-.776-1.218-1.556-2.222-1.381-.603.105-1.072.579-1.418 1.05a2.81 2.81 0 0 0-.213.33.474.474 0 0 0 .168.636c.213.124.523.057.642-.166z" style="fill:var(--color4, #1c1c24)"/><path fill="none" stroke="#1c1c24" stroke-miterlimit="10" stroke-width="0.5333" d="m14.163 18.362-4.835-.155m4.915 1.814-4.197.621m16.852-2.996 4.835-.155M26.82 19.3l4.197.619m-11.035-.405s2.339 3.224 4.317-.059m-2.139-2.35v3.641" style="stroke:var(--color4, #1c1c24)"/><path fill="#1c1c24" d="M22.117 17.269c.979 0 1.773-.557 1.773-1.244s-.794-1.244-1.773-1.244c-.979 0-1.773.557-1.773 1.244s.794 1.244 1.773 1.244z" style="fill:var(--color4, #1c1c24)"/><path fill="#1c1c24" stroke="#1c1c24" stroke-miterlimit="10" stroke-width="0.5333" d="M6.587 15.508c1.572-1.621-3.453-5.024-3.823-5.169-.016-.006-1.429 6.361-1.356 10.195.017.895.187 1.827.187 1.827.294.261.487 1.1 2.69.028 1.232-.6 1.475-1.823.354-2.059-2.158-.451.006-.932-.347-1.786-.893-2.153.643-1.331 2.297-3.036zm21.348 6.324c.182-1.907 1.972-1.369 1.972-1.369.596 3.481-1.487 5.845-2.989 6.672-.365 0-.714-2.128.106-2.399s.729-.998.911-2.904z" style="fill:var(--color4, #1c1c24);stroke:var(--color4, #1c1c24)"/></symbol></defs></svg>