<svg width="24" height="24" viewBox="0 0 24 24" fill="none" xmlns="http://www.w3.org/2000/svg">
<path d="M1.91635 8.02009C1.91635 8.02009 1.56113 1.41088 2.99723 1.08042C4.43333 0.749955 6.91058 3.12135 6.91058 3.12135L1.91635 8.02009Z" fill="#1C1C24"/>
<path d="M15.4814 3.28176C15.4814 3.28176 18.1328 0.641574 20.0118 1.08141C21.8896 1.52125 20.4546 6.73997 20.4546 6.73997L15.4814 3.28176Z" fill="#1C1C24"/>
<path d="M20.6684 20.1065C18.6783 21.6789 17.3474 22.1931 15.0852 22.8052C13.5754 23.2136 9.7727 23.1932 6.22934 21.767C3.74712 20.6811 2.77425 19.5003 2.30568 18.8568C1.89786 18.2971 1.06816 17.0551 1.02071 15.6965C0.951716 13.7186 1.00959 11.7892 1.91752 8.02267C2.82545 4.25495 6.91175 3.12393 6.91175 3.12393C11.3766 2.06971 15.0843 2.89819 16.3709 3.12393C17.6574 3.34966 21.3125 5.66406 21.6268 10.3021C21.6747 10.9956 22.4521 13.4627 22.5266 15.5348C22.5494 16.1703 22.5675 17.0164 22.2512 17.8843C21.8863 18.8853 21.0715 19.769 20.6684 20.1065Z" fill="#F07F2E" stroke="#1C1C24" stroke-width="0.4" stroke-miterlimit="10"/>
<path d="M8.36135 10.7475C8.3929 10.6881 8.42913 10.6311 8.46769 10.5753C8.48639 10.5485 8.50508 10.5217 8.52378 10.495C8.53429 10.481 8.54598 10.4659 8.5565 10.4519C8.58221 10.4158 8.49924 10.5206 8.55182 10.4577C8.60557 10.3926 8.66049 10.3297 8.72125 10.2704C8.7528 10.239 8.78553 10.2087 8.81941 10.1796C8.8311 10.1692 8.89069 10.1215 8.84395 10.1575C8.79721 10.1936 8.86497 10.1436 8.88016 10.1331C8.91756 10.1075 8.95729 10.0831 8.99819 10.0621C9.01805 10.0516 9.03909 10.0423 9.06012 10.0319C9.10102 10.0109 8.98651 10.0551 9.06714 10.0307C9.11154 10.0167 9.15593 10.0063 9.20034 9.9958C9.25993 9.98067 9.12438 9.99813 9.18631 9.99813C9.21319 9.99813 9.24007 9.99464 9.26812 9.9958C9.29266 9.9958 9.3172 10.0004 9.34057 10.0004C9.38497 10.0004 9.26929 9.98067 9.31135 9.99696C9.3207 10.0005 9.33356 10.0004 9.34407 10.0039C9.36978 10.0109 9.39548 10.0167 9.42002 10.0249C9.43053 10.0284 9.44222 10.033 9.45274 10.0365C9.52168 10.0563 9.41302 10.0109 9.4469 10.0342C9.50416 10.0726 9.57076 10.1017 9.62919 10.1401C9.64087 10.1482 9.65256 10.1564 9.66425 10.1657C9.60816 10.1226 9.66424 10.1668 9.67476 10.1773C9.70631 10.2064 9.73903 10.2343 9.76942 10.2646C9.926 10.4205 10.0218 10.5566 10.141 10.7486C10.2403 10.9081 10.4542 10.9709 10.6201 10.8743C10.7802 10.7812 10.8456 10.5578 10.7463 10.3972C10.3712 9.79566 9.80213 9.1871 9.0239 9.32324C8.5565 9.40469 8.19075 9.77239 7.92316 10.1389C7.8624 10.2215 7.80396 10.3076 7.75606 10.3972C7.66725 10.5636 7.714 10.7766 7.88226 10.8743C8.04001 10.9639 8.27254 10.9139 8.36135 10.7475Z" fill="#1C1C24"/>
<path d="M18.601 10.2484C18.6314 10.1914 18.6664 10.1367 18.7026 10.0832C18.7202 10.0576 18.7377 10.032 18.7564 10.0064C18.7669 9.99242 18.7774 9.97845 18.7868 9.96449C18.8125 9.92958 18.7284 10.0355 18.7809 9.97379C18.8324 9.91212 18.8849 9.85161 18.9434 9.7946C18.9737 9.76434 19.0053 9.73525 19.038 9.70849C19.0497 9.69802 19.1081 9.65148 19.0602 9.68872C19.0123 9.72595 19.0777 9.67591 19.0929 9.6666C19.1291 9.64217 19.1665 9.6189 19.2051 9.59796C19.225 9.58748 19.2448 9.57817 19.2635 9.56887C19.3044 9.54792 19.1864 9.5933 19.267 9.56887C19.3091 9.55607 19.3523 9.54559 19.3956 9.53512C19.454 9.52115 19.3173 9.53861 19.378 9.53745C19.4038 9.53745 19.4295 9.53395 19.4563 9.53512C19.4797 9.53512 19.5031 9.53978 19.5265 9.53978C19.5709 9.53978 19.4528 9.51999 19.4937 9.53628C19.5031 9.53977 19.5148 9.53978 19.5241 9.54211C19.5487 9.54909 19.5732 9.5549 19.5966 9.56188C19.6071 9.56537 19.6176 9.57003 19.6281 9.57236C19.6959 9.59214 19.586 9.54559 19.6188 9.5677C19.6737 9.60494 19.7368 9.6317 19.7929 9.6701C19.8045 9.67824 19.8151 9.68638 19.8256 9.69453C19.766 9.64915 19.8209 9.69221 19.8326 9.70268C19.863 9.73061 19.8945 9.75737 19.9237 9.78646C20.0768 9.93889 20.1586 10.0576 20.2778 10.2472C20.3771 10.4066 20.591 10.4695 20.7569 10.3729C20.917 10.2798 20.9824 10.0564 20.8831 9.89583C20.5197 9.31403 19.9693 8.72876 19.2168 8.86024C18.7646 8.93937 18.4129 9.29426 18.1534 9.648C18.095 9.72712 18.0401 9.80972 17.9934 9.89583C17.9046 10.0622 17.9513 10.2752 18.1196 10.3729C18.2796 10.466 18.5122 10.416 18.601 10.2484Z" fill="#1C1C24"/>
<path d="M10.6225 13.7718L6.99658 13.6554" stroke="#1C1C24" stroke-width="0.4" stroke-miterlimit="10"/>
<path d="M10.6821 15.0161L7.53418 15.4816" stroke="#1C1C24" stroke-width="0.4" stroke-miterlimit="10"/>
<path d="M20.1738 13.2345L23.7997 13.1182" stroke="#1C1C24" stroke-width="0.4" stroke-miterlimit="10"/>
<path d="M20.1147 14.4751L23.2627 14.9394" stroke="#1C1C24" stroke-width="0.4" stroke-miterlimit="10"/>
<path d="M14.9868 14.6354C14.9868 14.6354 16.7408 17.0534 18.2248 14.5912" stroke="#1C1C24" stroke-width="0.4" stroke-miterlimit="10"/>
<path d="M16.6201 12.8286V15.5596" stroke="#1C1C24" stroke-width="0.4" stroke-miterlimit="10"/>
<path d="M16.5881 12.9516C17.3225 12.9516 17.9178 12.5338 17.9178 12.0184C17.9178 11.503 17.3225 11.0852 16.5881 11.0852C15.8537 11.0852 15.2583 11.503 15.2583 12.0184C15.2583 12.5338 15.8537 12.9516 16.5881 12.9516Z" fill="#1C1C24"/>
<path d="M4.94007 11.6311C6.1191 10.4152 2.35064 7.86341 2.07253 7.75403C2.06085 7.74938 1.00105 12.5249 1.05523 15.4C1.06789 16.0715 1.19544 16.7705 1.19544 16.7705C1.41629 16.9659 1.56072 17.5957 3.213 16.7917C4.1373 16.3414 4.31959 15.4244 3.47826 15.2476C1.85987 14.909 3.48293 14.5483 3.21768 13.9083C2.54812 12.2932 3.70027 12.9099 4.94007 11.6311Z" fill="#1C1C24" stroke="#1C1C24" stroke-width="0.4" stroke-miterlimit="10"/>
<path d="M20.9512 16.374C21.0879 14.9439 22.4301 15.3476 22.4301 15.3476C22.8768 17.958 21.3146 19.7312 20.1884 20.3518C19.915 20.3518 19.653 18.7559 20.2676 18.5523C20.8823 18.3486 20.8145 17.8041 20.9512 16.374Z" fill="#1C1C24" stroke="#1C1C24" stroke-width="0.4" stroke-miterlimit="10"/>
</svg>
